<?xml version="1.0" encoding="UTF-8"?>
<svg id="Layer_1" data-name="Layer 1" xmlns="http://www.w3.org/2000/svg" viewBox="0 0 354.54 351.88">
  <defs>
    <style>
      .cls-1 {
        fill: #002856;
      }

      .cls-1, .cls-2, .cls-3 {
        stroke-width: 0px;
      }

      .cls-2 {
        fill: #ffa400;
      }

      .cls-3 {
        fill: #156836;
      }
    </style>
  </defs>
  <path class="cls-2" d="M167.23,116.22h-50.27v98.45h16.6v-81.85h33.67c17.98,0,32.93,4.53,42.08,12.76,7.85,7.05,11.66,16.98,11.66,30.35s-3.81,23.3-11.66,30.36c-9.15,8.23-24.1,12.77-42.08,12.77h-93.77v16.59h93.77c22.4,0,40.79-5.89,53.17-17.02,11.39-10.24,17.17-24.59,17.17-42.7s-5.78-32.46-17.17-42.69c-12.38-11.14-30.77-17.02-53.17-17.02h0Z"/>
  <path class="cls-3" d="M167.23,94.44h-72.06v120.23h16.6v-103.63h55.46c7.41,0,14.41.62,20.95,1.84,1.31.24,2.6.51,3.87.8,12.7,2.91,23.48,8.2,31.82,15.7,12.53,11.27,18.89,26.93,18.89,46.56,0,9.81-1.59,18.64-4.75,26.41-.59,1.47-1.26,2.88-1.97,4.27-.7,1.38-1.43,2.73-2.24,4.04-1.08,1.75-2.26,3.43-3.54,5.04-1.91,2.42-4.05,4.69-6.4,6.8-.83.75-1.69,1.48-2.58,2.18-5.04,4.03-10.87,7.32-17.38,9.87-2.83,1.11-5.79,2.08-8.87,2.9-2.23.59-4.51,1.12-6.86,1.56-6.54,1.22-13.54,1.84-20.95,1.84h-73.02v16.6h73.02c6.97,0,13.65-.49,20.03-1.45,6.37-.96,12.43-2.4,18.12-4.31,11.4-3.8,21.36-9.45,29.59-16.85,5.98-5.38,10.91-11.6,14.73-18.56,1.27-2.32,2.42-4.72,3.45-7.2,1.54-3.72,2.8-7.61,3.77-11.65.32-1.35.62-2.72.88-4.1,1.04-5.54,1.57-11.35,1.57-17.39,0-19.27-5.37-36.11-15.62-49.41-1.81-2.35-3.76-4.6-5.87-6.73-.94-.94-1.91-1.86-2.9-2.76-16.45-14.78-39.88-22.59-67.74-22.59h0Z"/>
  <path class="cls-1" d="M275.62,140.68c-.83-2.48-1.76-4.9-2.77-7.27-1.01-2.37-2.11-4.67-3.3-6.92-.79-1.5-1.62-2.97-2.48-4.41-2.16-3.61-4.56-7.05-7.18-10.3-1.05-1.3-2.13-2.58-3.25-3.82-.56-.62-1.13-1.24-1.7-1.85-1.73-1.82-3.53-3.58-5.41-5.27-1.25-1.13-2.54-2.22-3.85-3.28-19.76-15.95-46.77-24.9-78.45-24.9h-93.84v142.02h16.6v-125.42h77.24c15.96,0,30.37,2.5,42.94,7.15,1.14.42,2.25.86,3.36,1.32,3.66,1.51,7.16,3.19,10.47,5.07,1.28.73,2.54,1.49,3.76,2.27,1.76,1.12,3.43,2.32,5.08,3.55,1.8,1.35,3.56,2.75,5.22,4.23,5.29,4.72,9.87,10.07,13.65,16.02,1.51,2.38,2.9,4.85,4.16,7.41,1.89,3.84,3.48,7.88,4.77,12.11.86,2.82,1.58,5.73,2.16,8.71,1.16,5.97,1.76,12.26,1.76,18.84,0,14.81-3.02,28.15-8.68,39.67-1.26,2.56-2.65,5.03-4.16,7.41-3.03,4.75-6.56,9.13-10.56,13.11-7.59,7.54-16.88,13.6-27.62,18.03-1.1.46-2.22.89-3.36,1.32-12.57,4.65-26.98,7.15-42.94,7.15h-52.27v16.6h52.27c28.51,0,53.24-7.25,72.3-20.33,3.53-2.42,6.87-5.04,10-7.86,1.25-1.13,2.47-2.28,3.66-3.47,2.37-2.37,4.61-4.86,6.7-7.47,1.05-1.3,2.06-2.64,3.03-4,.49-.68.97-1.37,1.44-2.06.94-1.39,1.84-2.8,2.71-4.25,9.09-15.16,14.08-33.34,14.08-53.87,0-12.71-1.91-24.51-5.52-35.26Z"/>
</svg>