<?xml version="1.0" encoding="UTF-8"?>
<svg id="Layer_1" data-name="Layer 1" xmlns="http://www.w3.org/2000/svg" viewBox="0 0 817.43 351.88">
  <defs>
    <style>
      .cls-1 {
        fill: #000;
        stroke-width: 0px;
      }
    </style>
  </defs>
  <g>
    <path class="cls-1" d="M342.23,125.88h31.39c22.61,0,38.11,13.62,38.11,34.55s-15.5,34.55-38.11,34.55h-31.39v-69.11ZM372.84,181.85c13.72,0,22.71-8.19,22.71-21.42s-8.98-21.42-22.71-21.42h-14.61v42.85h14.61Z"/>
    <path class="cls-1" d="M423.18,164.58v-38.7h15.99v38.11c0,13.13,5.73,18.56,15.4,18.56s15.4-5.43,15.4-18.56v-38.11h15.8v38.7c0,20.34-11.65,31.59-31.3,31.59s-31.3-11.25-31.3-31.59Z"/>
    <path class="cls-1" d="M564.94,176.13c0,11.95-9.48,18.86-27.64,18.86h-35.74v-69.11h33.76c17.28,0,26.16,7.21,26.16,17.97,0,6.91-3.55,12.24-9.18,15.2,7.7,2.47,12.64,8.39,12.64,17.08ZM517.45,137.92v16.29h15.89c7.8,0,12.04-2.76,12.04-8.19s-4.25-8.09-12.04-8.09h-15.89ZM548.85,174.45c0-5.83-4.44-8.59-12.74-8.59h-18.66v17.08h18.66c8.29,0,12.74-2.57,12.74-8.49Z"/>
    <path class="cls-1" d="M572.74,160.43c0-20.53,15.99-35.74,37.81-35.74s37.81,15.11,37.81,35.74-16.09,35.74-37.81,35.74-37.81-15.2-37.81-35.74ZM632.17,160.43c0-13.13-9.28-22.11-21.62-22.11s-21.62,8.98-21.62,22.11,9.28,22.11,21.62,22.11,21.62-8.98,21.62-22.11Z"/>
    <path class="cls-1" d="M660.4,125.88h15.99v69.11h-15.99v-69.11Z"/>
    <path class="cls-1" d="M687.35,188.17l5.43-12.04c5.82,4.25,14.51,7.21,22.81,7.21,9.48,0,13.33-3.16,13.33-7.4,0-12.93-40.18-4.05-40.18-29.72,0-11.75,9.48-21.52,29.12-21.52,8.69,0,17.57,2.07,23.99,6.12l-4.94,12.14c-6.42-3.65-13.03-5.43-19.15-5.43-9.48,0-13.13,3.55-13.13,7.9,0,12.74,40.18,3.95,40.18,29.32,0,11.55-9.58,21.42-29.32,21.42-10.96,0-22.02-3.26-28.14-8Z"/>
  </g>
  <g>
    <path class="cls-1" d="M167.3,116.39h-50.27v98.45h16.6v-81.85h33.67c17.98,0,32.93,4.53,42.08,12.76,7.85,7.05,11.66,16.98,11.66,30.35s-3.81,23.3-11.66,30.36c-9.15,8.23-24.1,12.77-42.08,12.77h-93.77v16.59h93.77c22.4,0,40.79-5.89,53.17-17.02,11.39-10.24,17.17-24.59,17.17-42.7s-5.78-32.46-17.17-42.69c-12.38-11.14-30.77-17.02-53.17-17.02h0Z"/>
    <path class="cls-1" d="M167.3,94.6h-72.06v120.23h16.6v-103.63h55.46c7.41,0,14.41.62,20.95,1.84,1.31.24,2.6.51,3.87.8,12.7,2.91,23.48,8.2,31.82,15.7,12.53,11.27,18.89,26.93,18.89,46.56,0,9.81-1.59,18.64-4.75,26.41-.59,1.47-1.26,2.88-1.97,4.27-.7,1.38-1.43,2.73-2.24,4.04-1.08,1.75-2.26,3.43-3.54,5.04-1.91,2.42-4.05,4.69-6.4,6.8-.83.75-1.69,1.48-2.58,2.18-5.04,4.03-10.87,7.32-17.38,9.87-2.83,1.11-5.79,2.08-8.87,2.9-2.23.59-4.51,1.12-6.86,1.56-6.54,1.22-13.54,1.84-20.95,1.84h-73.02v16.6h73.02c6.97,0,13.65-.49,20.03-1.45,6.37-.96,12.43-2.4,18.12-4.31,11.4-3.8,21.36-9.45,29.59-16.85,5.98-5.38,10.91-11.6,14.73-18.56,1.27-2.32,2.42-4.72,3.45-7.2,1.54-3.72,2.8-7.61,3.77-11.65.32-1.35.62-2.72.88-4.1,1.04-5.54,1.57-11.35,1.57-17.39,0-19.27-5.37-36.11-15.62-49.41-1.81-2.35-3.76-4.6-5.87-6.73-.94-.94-1.91-1.86-2.9-2.76-16.45-14.78-39.88-22.59-67.74-22.59h0Z"/>
    <path class="cls-1" d="M275.69,140.84c-.83-2.48-1.76-4.9-2.77-7.27-1.01-2.37-2.11-4.67-3.3-6.92-.79-1.5-1.62-2.97-2.48-4.41-2.16-3.61-4.56-7.05-7.18-10.3-1.05-1.3-2.13-2.58-3.25-3.82-.56-.62-1.13-1.24-1.7-1.85-1.73-1.82-3.53-3.58-5.41-5.27-1.25-1.13-2.54-2.22-3.85-3.28-19.76-15.95-46.77-24.9-78.45-24.9h-93.84v142.02h16.6v-125.42h77.24c15.96,0,30.37,2.5,42.94,7.15,1.14.42,2.25.86,3.36,1.32,3.66,1.51,7.16,3.19,10.47,5.07,1.28.73,2.54,1.49,3.76,2.27,1.76,1.12,3.43,2.32,5.08,3.55,1.8,1.35,3.56,2.75,5.22,4.23,5.29,4.72,9.87,10.07,13.65,16.02,1.51,2.38,2.9,4.85,4.16,7.41,1.89,3.84,3.48,7.88,4.77,12.11.86,2.82,1.58,5.73,2.16,8.71,1.16,5.97,1.76,12.26,1.76,18.84,0,14.81-3.02,28.15-8.68,39.67-1.26,2.56-2.65,5.03-4.16,7.41-3.03,4.75-6.56,9.13-10.56,13.11-7.59,7.54-16.88,13.6-27.62,18.03-1.1.46-2.22.89-3.36,1.32-12.57,4.65-26.98,7.15-42.94,7.15h-52.27v16.6h52.27c28.51,0,53.24-7.25,72.3-20.33,3.53-2.42,6.87-5.04,10-7.86,1.25-1.13,2.47-2.28,3.66-3.47,2.37-2.37,4.61-4.86,6.7-7.47,1.05-1.3,2.06-2.64,3.03-4,.49-.68.97-1.37,1.44-2.06.94-1.39,1.84-2.8,2.71-4.25,9.09-15.16,14.08-33.34,14.08-53.87,0-12.71-1.91-24.51-5.52-35.26Z"/>
  </g>
  <g>
    <path class="cls-1" d="M339.78,226.89h8c5.76,0,9.71,3.47,9.71,8.8s-3.95,8.8-9.71,8.8h-8v-17.6ZM347.57,241.15c3.5,0,5.78-2.09,5.78-5.46s-2.29-5.46-5.78-5.46h-3.72v10.91h3.72Z"/>
    <path class="cls-1" d="M371.9,240.72h-8.17l-1.56,3.77h-4.17l7.85-17.6h4.02l7.87,17.6h-4.27l-1.56-3.77ZM370.61,237.63l-2.79-6.74-2.79,6.74h5.58Z"/>
    <path class="cls-1" d="M382.34,230.21h-5.63v-3.32h15.34v3.32h-5.63v14.28h-4.07v-14.28Z"/>
    <path class="cls-1" d="M404.95,240.72h-8.17l-1.56,3.77h-4.17l7.85-17.6h4.02l7.87,17.6h-4.27l-1.56-3.77ZM403.67,237.63l-2.79-6.74-2.79,6.74h5.58Z"/>
    <path class="cls-1" d="M418.36,242.76l1.38-3.07c1.48,1.08,3.7,1.83,5.81,1.83,2.41,0,3.39-.8,3.39-1.89,0-3.29-10.23-1.03-10.23-7.57,0-2.99,2.41-5.48,7.42-5.48,2.21,0,4.48.53,6.11,1.56l-1.26,3.09c-1.63-.93-3.32-1.38-4.88-1.38-2.41,0-3.34.91-3.34,2.01,0,3.24,10.23,1.01,10.23,7.47,0,2.94-2.44,5.46-7.47,5.46-2.79,0-5.61-.83-7.17-2.04Z"/>
    <path class="cls-1" d="M434.68,235.69c0-5.31,4.07-9.1,9.56-9.1,3.04,0,5.58,1.11,7.24,3.12l-2.62,2.41c-1.18-1.36-2.67-2.06-4.43-2.06-3.29,0-5.63,2.31-5.63,5.63s2.34,5.63,5.63,5.63c1.76,0,3.24-.7,4.43-2.09l2.62,2.41c-1.66,2.04-4.2,3.14-7.27,3.14-5.46,0-9.53-3.8-9.53-9.1Z"/>
    <path class="cls-1" d="M454.23,226.89h4.07v17.6h-4.07v-17.6Z"/>
    <path class="cls-1" d="M476.11,241.22v3.27h-13.63v-17.6h13.3v3.27h-9.25v3.82h8.17v3.17h-8.17v4.07h9.58Z"/>
    <path class="cls-1" d="M495.5,226.89v17.6h-3.34l-8.78-10.69v10.69h-4.02v-17.6h3.37l8.75,10.69v-10.69h4.02Z"/>
    <path class="cls-1" d="M498.57,235.69c0-5.31,4.07-9.1,9.56-9.1,3.04,0,5.58,1.11,7.24,3.12l-2.62,2.41c-1.18-1.36-2.67-2.06-4.43-2.06-3.29,0-5.63,2.31-5.63,5.63s2.34,5.63,5.63,5.63c1.76,0,3.24-.7,4.43-2.09l2.62,2.41c-1.66,2.04-4.2,3.14-7.27,3.14-5.46,0-9.53-3.8-9.53-9.1Z"/>
    <path class="cls-1" d="M531.74,241.22v3.27h-13.63v-17.6h13.3v3.27h-9.25v3.82h8.17v3.17h-8.17v4.07h9.58Z"/>
    <path class="cls-1" d="M546.18,230.16v4.65h8.15v3.27h-8.15v6.41h-4.07v-17.6h13.3v3.27h-9.23Z"/>
    <path class="cls-1" d="M556.9,235.69c0-5.23,4.07-9.1,9.63-9.1s9.63,3.85,9.63,9.1-4.1,9.1-9.63,9.1-9.63-3.87-9.63-9.1ZM572.04,235.69c0-3.34-2.36-5.63-5.51-5.63s-5.51,2.29-5.51,5.63,2.36,5.63,5.51,5.63,5.51-2.29,5.51-5.63Z"/>
    <path class="cls-1" d="M590.45,244.49l-3.39-4.9h-3.75v4.9h-4.07v-17.6h7.62c4.7,0,7.64,2.44,7.64,6.39,0,2.64-1.33,4.58-3.62,5.56l3.95,5.66h-4.38ZM586.63,230.21h-3.32v6.14h3.32c2.49,0,3.75-1.16,3.75-3.07s-1.26-3.07-3.75-3.07Z"/>
    <path class="cls-1" d="M618.47,241.22v3.27h-13.63v-17.6h13.3v3.27h-9.25v3.82h8.17v3.17h-8.17v4.07h9.58Z"/>
    <path class="cls-1" d="M638.39,226.89l-7.62,17.6h-4.02l-7.59-17.6h4.4l5.36,12.57,5.43-12.57h4.05Z"/>
    <path class="cls-1" d="M653.48,241.22v3.27h-13.63v-17.6h13.3v3.27h-9.25v3.82h8.17v3.17h-8.17v4.07h9.58Z"/>
    <path class="cls-1" d="M667.95,244.49l-3.39-4.9h-3.75v4.9h-4.07v-17.6h7.62c4.7,0,7.64,2.44,7.64,6.39,0,2.64-1.33,4.58-3.62,5.56l3.95,5.66h-4.38ZM664.13,230.21h-3.32v6.14h3.32c2.49,0,3.75-1.16,3.75-3.07s-1.26-3.07-3.75-3.07Z"/>
    <path class="cls-1" d="M683.42,238.26v6.24h-4.07v-6.29l-6.81-11.32h4.33l4.7,7.82,4.7-7.82h4l-6.84,11.37Z"/>
    <path class="cls-1" d="M690.11,235.69c0-5.23,4.07-9.1,9.63-9.1s9.63,3.85,9.63,9.1-4.1,9.1-9.63,9.1-9.63-3.87-9.63-9.1ZM705.25,235.69c0-3.34-2.36-5.63-5.51-5.63s-5.51,2.29-5.51,5.63,2.36,5.63,5.51,5.63,5.51-2.29,5.51-5.63Z"/>
    <path class="cls-1" d="M728.59,226.89v17.6h-3.34l-8.78-10.69v10.69h-4.02v-17.6h3.37l8.75,10.69v-10.69h4.02Z"/>
    <path class="cls-1" d="M746.4,241.22v3.27h-13.63v-17.6h13.3v3.27h-9.25v3.82h8.17v3.17h-8.17v4.07h9.58Z"/>
  </g>
  <g>
    <rect class="cls-1" x="339.31" y="204.84" width="404.99" height="8.97"/>
    <polygon class="cls-1" points="744.3 204.84 339.31 204.84 339.31 213.81 744.3 213.81 744.3 204.84 744.3 204.84"/>
  </g>
</svg>